M48
;DRILL file {KiCad 4.0.1-3.201512221402+6198~38~ubuntu14.04.1-stable} date Mon 01 Feb 2016 11:28:58 PM PST
;FORMAT={-:-/ absolute / inch / decimal}
FMAT,2
INCH,TZ
T1C0.013
T2C0.031
T3C0.032
T4C0.039
T5C0.039
T6C0.040
T7C0.047
T8C0.067
T9C0.087
%
G90
G05
M72
T1
X7.2Y-4.22
X7.372Y-3.924
X7.379Y-4.1284
X7.4055Y-3.9795
X7.497Y-4.1
X7.5592Y-3.8606
X7.65Y-3.863
X7.809Y-4.056
T2
X7.41Y-3.78
T3
X7.3116Y-3.78
T4
X6.37Y-3.79
X6.37Y-3.89
T5
X6.7616Y-4.2069
X6.86Y-4.2069
T6
X7.9Y-3.76
X7.9Y-3.86
X7.9Y-3.96
X7.9Y-4.06
X7.9Y-4.16
X7.9Y-4.26
T7
X6.37Y-4.14
T8
X6.27Y-4.04
X6.27Y-4.24
X6.47Y-4.04
X6.47Y-4.24
T9
X6.6593Y-4.039
X7.0608Y-4.039
T0
M30
