G04 #@! TF.FileFunction,Soldermask,Top*
%FSLAX46Y46*%
G04 Gerber Fmt 4.6, Leading zero omitted, Abs format (unit mm)*
G04 Created by KiCad (PCBNEW 4.0.1-3.201512221402+6198~38~ubuntu14.04.1-stable) date Mon 01 Feb 2016 11:31:49 PM PST*
%MOMM*%
G01*
G04 APERTURE LIST*
%ADD10C,0.100000*%
%ADD11R,2.432000X2.127200*%
%ADD12O,2.432000X2.127200*%
%ADD13R,0.900000X1.000000*%
%ADD14R,1.800000X0.700000*%
%ADD15R,0.800000X1.000000*%
%ADD16R,1.000000X0.800000*%
%ADD17R,1.000000X0.900000*%
%ADD18R,1.799540X2.200860*%
%ADD19C,3.140000*%
%ADD20C,2.640000*%
%ADD21O,3.900120X7.400240*%
%ADD22O,2.000200X2.899360*%
%ADD23R,1.700000X1.700000*%
%ADD24C,1.700000*%
%ADD25O,3.414980X1.906220*%
G04 APERTURE END LIST*
D10*
D11*
X200660000Y-95504000D03*
D12*
X200660000Y-98044000D03*
X200660000Y-100584000D03*
X200660000Y-103124000D03*
X200660000Y-105664000D03*
X200660000Y-108204000D03*
D13*
X191490600Y-105299600D03*
X191490600Y-104199600D03*
D14*
X188890000Y-105902000D03*
X188890000Y-105402000D03*
X188890000Y-104902000D03*
X188890000Y-104402000D03*
X188890000Y-103902000D03*
X184490000Y-103902000D03*
X184490000Y-104402000D03*
X184490000Y-104902000D03*
X184490000Y-105402000D03*
X184490000Y-105902000D03*
D13*
X184150000Y-107146000D03*
X184150000Y-108246000D03*
D15*
X186240000Y-101092000D03*
X187140000Y-101092000D03*
D16*
X196164200Y-96197000D03*
X196164200Y-97097000D03*
X194310000Y-96197000D03*
X194310000Y-97097000D03*
D17*
X190796000Y-107188000D03*
X189696000Y-107188000D03*
D16*
X192557400Y-96171600D03*
X192557400Y-97071600D03*
D18*
X196499480Y-107431840D03*
X196499480Y-103032560D03*
X194101720Y-103032560D03*
X194101720Y-107431840D03*
D19*
X159258000Y-107696000D03*
X164338000Y-107696000D03*
X164338000Y-102616000D03*
X159258000Y-102616000D03*
D20*
X161798000Y-105156000D03*
D17*
X187240000Y-98552000D03*
X186140000Y-98552000D03*
D21*
X169146220Y-102590600D03*
X179344320Y-102590600D03*
D22*
X174244000Y-106855260D03*
X171744640Y-106855260D03*
D23*
X188214000Y-96012000D03*
D24*
X185714000Y-96012000D03*
D25*
X161798000Y-98806000D03*
X161798000Y-96266000D03*
M02*
