G04 #@! TF.FileFunction,Legend,Top*
%FSLAX46Y46*%
G04 Gerber Fmt 4.6, Leading zero omitted, Abs format (unit mm)*
G04 Created by KiCad (PCBNEW 4.0.1-3.201512221402+6198~38~ubuntu14.04.1-stable) date Mon 01 Feb 2016 11:31:49 PM PST*
%MOMM*%
G01*
G04 APERTURE LIST*
%ADD10C,0.100000*%
%ADD11C,0.150000*%
G04 APERTURE END LIST*
D10*
D11*
X201930000Y-96774000D02*
X201930000Y-109474000D01*
X201930000Y-109474000D02*
X199390000Y-109474000D01*
X199390000Y-109474000D02*
X199390000Y-96774000D01*
X202210000Y-93954000D02*
X202210000Y-95504000D01*
X201930000Y-96774000D02*
X199390000Y-96774000D01*
X199110000Y-95504000D02*
X199110000Y-93954000D01*
X199110000Y-93954000D02*
X202210000Y-93954000D01*
X191015600Y-104499600D02*
X191015600Y-104999600D01*
X191965600Y-104999600D02*
X191965600Y-104499600D01*
X188365000Y-106577000D02*
X188365000Y-106277000D01*
X185015000Y-106577000D02*
X185015000Y-106277000D01*
X185015000Y-103227000D02*
X185015000Y-103527000D01*
X188365000Y-103227000D02*
X188365000Y-103527000D01*
X188365000Y-106577000D02*
X185015000Y-106577000D01*
X188365000Y-103227000D02*
X185015000Y-103227000D01*
X188365000Y-106277000D02*
X189590000Y-106277000D01*
X184625000Y-107946000D02*
X184625000Y-107446000D01*
X183675000Y-107446000D02*
X183675000Y-107946000D01*
X186940000Y-100567000D02*
X186440000Y-100567000D01*
X186440000Y-101617000D02*
X186940000Y-101617000D01*
X196689200Y-96897000D02*
X196689200Y-96397000D01*
X195639200Y-96397000D02*
X195639200Y-96897000D01*
X194835000Y-96897000D02*
X194835000Y-96397000D01*
X193785000Y-96397000D02*
X193785000Y-96897000D01*
X189996000Y-107663000D02*
X190496000Y-107663000D01*
X190496000Y-106713000D02*
X189996000Y-106713000D01*
X193082400Y-96871600D02*
X193082400Y-96371600D01*
X192032400Y-96371600D02*
X192032400Y-96871600D01*
X196392459Y-105732580D02*
G75*
G03X196392459Y-105732580I-141899J0D01*
G01*
X197149720Y-104531160D02*
X197149720Y-105933240D01*
X193451480Y-105933240D02*
X193451480Y-104531160D01*
X160798000Y-101650800D02*
X162798000Y-101650800D01*
X165303200Y-104156000D02*
X165303200Y-106156000D01*
X162798000Y-108661200D02*
X160798000Y-108661200D01*
X158292800Y-106156000D02*
X158292800Y-104156000D01*
X186440000Y-99027000D02*
X186940000Y-99027000D01*
X186940000Y-98077000D02*
X186440000Y-98077000D01*
X168744900Y-90053160D02*
X179743100Y-89253060D01*
X168744900Y-90853260D02*
X179743100Y-90053160D01*
X168744900Y-91653360D02*
X179743100Y-90853260D01*
X168744900Y-92453460D02*
X179743100Y-91653360D01*
X168744900Y-93253560D02*
X179743100Y-92453460D01*
X168744900Y-94053660D02*
X179743100Y-93253560D01*
X175244760Y-79154020D02*
G75*
G03X175244760Y-79154020I-1000760J0D01*
G01*
X179044600Y-87155020D02*
X179044600Y-75153520D01*
X179044600Y-75153520D02*
X169443400Y-75153520D01*
X169443400Y-75153520D02*
X169443400Y-87155020D01*
X179743100Y-94653100D02*
X179743100Y-87155020D01*
X179743100Y-87155020D02*
X168744900Y-87155020D01*
X168744900Y-87155020D02*
X168744900Y-94653100D01*
X166443660Y-109054900D02*
X182044340Y-109054900D01*
X182044340Y-109054900D02*
X182044340Y-94653100D01*
X182044340Y-94653100D02*
X166443660Y-94653100D01*
X166443660Y-94653100D02*
X166443660Y-109054900D01*
X188464000Y-97262000D02*
X185464000Y-97262000D01*
X185464000Y-94762000D02*
X188464000Y-94762000D01*
X160528000Y-94996000D02*
X160528000Y-100076000D01*
X164973000Y-94996000D02*
X164973000Y-100076000D01*
X158623000Y-100076000D02*
X158623000Y-94996000D01*
X158623000Y-100076000D02*
X164973000Y-100076000D01*
X158623000Y-94996000D02*
X164973000Y-94996000D01*
X191847743Y-102376266D02*
X191895362Y-102423885D01*
X191942981Y-102566742D01*
X191942981Y-102661980D01*
X191895362Y-102804838D01*
X191800124Y-102900076D01*
X191704886Y-102947695D01*
X191514410Y-102995314D01*
X191371552Y-102995314D01*
X191181076Y-102947695D01*
X191085838Y-102900076D01*
X190990600Y-102804838D01*
X190942981Y-102661980D01*
X190942981Y-102566742D01*
X190990600Y-102423885D01*
X191038219Y-102376266D01*
X191038219Y-101995314D02*
X190990600Y-101947695D01*
X190942981Y-101852457D01*
X190942981Y-101614361D01*
X190990600Y-101519123D01*
X191038219Y-101471504D01*
X191133457Y-101423885D01*
X191228695Y-101423885D01*
X191371552Y-101471504D01*
X191942981Y-102042933D01*
X191942981Y-101423885D01*
X186944095Y-107402381D02*
X186944095Y-108211905D01*
X186991714Y-108307143D01*
X187039333Y-108354762D01*
X187134571Y-108402381D01*
X187325048Y-108402381D01*
X187420286Y-108354762D01*
X187467905Y-108307143D01*
X187515524Y-108211905D01*
X187515524Y-107402381D01*
X188515524Y-108402381D02*
X187944095Y-108402381D01*
X188229809Y-108402381D02*
X188229809Y-107402381D01*
X188134571Y-107545238D01*
X188039333Y-107640476D01*
X187944095Y-107688095D01*
X186031143Y-108370666D02*
X186078762Y-108418285D01*
X186126381Y-108561142D01*
X186126381Y-108656380D01*
X186078762Y-108799238D01*
X185983524Y-108894476D01*
X185888286Y-108942095D01*
X185697810Y-108989714D01*
X185554952Y-108989714D01*
X185364476Y-108942095D01*
X185269238Y-108894476D01*
X185174000Y-108799238D01*
X185126381Y-108656380D01*
X185126381Y-108561142D01*
X185174000Y-108418285D01*
X185221619Y-108370666D01*
X185126381Y-107513523D02*
X185126381Y-107704000D01*
X185174000Y-107799238D01*
X185221619Y-107846857D01*
X185364476Y-107942095D01*
X185554952Y-107989714D01*
X185935905Y-107989714D01*
X186031143Y-107942095D01*
X186078762Y-107894476D01*
X186126381Y-107799238D01*
X186126381Y-107608761D01*
X186078762Y-107513523D01*
X186031143Y-107465904D01*
X185935905Y-107418285D01*
X185697810Y-107418285D01*
X185602571Y-107465904D01*
X185554952Y-107513523D01*
X185507333Y-107608761D01*
X185507333Y-107799238D01*
X185554952Y-107894476D01*
X185602571Y-107942095D01*
X185697810Y-107989714D01*
X183983334Y-101544381D02*
X183650000Y-101068190D01*
X183411905Y-101544381D02*
X183411905Y-100544381D01*
X183792858Y-100544381D01*
X183888096Y-100592000D01*
X183935715Y-100639619D01*
X183983334Y-100734857D01*
X183983334Y-100877714D01*
X183935715Y-100972952D01*
X183888096Y-101020571D01*
X183792858Y-101068190D01*
X183411905Y-101068190D01*
X184935715Y-101544381D02*
X184364286Y-101544381D01*
X184650000Y-101544381D02*
X184650000Y-100544381D01*
X184554762Y-100687238D01*
X184459524Y-100782476D01*
X184364286Y-100830095D01*
X198013581Y-96813666D02*
X197537390Y-97147000D01*
X198013581Y-97385095D02*
X197013581Y-97385095D01*
X197013581Y-97004142D01*
X197061200Y-96908904D01*
X197108819Y-96861285D01*
X197204057Y-96813666D01*
X197346914Y-96813666D01*
X197442152Y-96861285D01*
X197489771Y-96908904D01*
X197537390Y-97004142D01*
X197537390Y-97385095D01*
X197346914Y-95956523D02*
X198013581Y-95956523D01*
X196965962Y-96194619D02*
X197680248Y-96432714D01*
X197680248Y-95813666D01*
X194736981Y-99836266D02*
X194260790Y-100169600D01*
X194736981Y-100407695D02*
X193736981Y-100407695D01*
X193736981Y-100026742D01*
X193784600Y-99931504D01*
X193832219Y-99883885D01*
X193927457Y-99836266D01*
X194070314Y-99836266D01*
X194165552Y-99883885D01*
X194213171Y-99931504D01*
X194260790Y-100026742D01*
X194260790Y-100407695D01*
X193832219Y-99455314D02*
X193784600Y-99407695D01*
X193736981Y-99312457D01*
X193736981Y-99074361D01*
X193784600Y-98979123D01*
X193832219Y-98931504D01*
X193927457Y-98883885D01*
X194022695Y-98883885D01*
X194165552Y-98931504D01*
X194736981Y-99502933D01*
X194736981Y-98883885D01*
X190053934Y-108865943D02*
X190006315Y-108913562D01*
X189863458Y-108961181D01*
X189768220Y-108961181D01*
X189625362Y-108913562D01*
X189530124Y-108818324D01*
X189482505Y-108723086D01*
X189434886Y-108532610D01*
X189434886Y-108389752D01*
X189482505Y-108199276D01*
X189530124Y-108104038D01*
X189625362Y-108008800D01*
X189768220Y-107961181D01*
X189863458Y-107961181D01*
X190006315Y-108008800D01*
X190053934Y-108056419D01*
X190958696Y-107961181D02*
X190482505Y-107961181D01*
X190434886Y-108437371D01*
X190482505Y-108389752D01*
X190577743Y-108342133D01*
X190815839Y-108342133D01*
X190911077Y-108389752D01*
X190958696Y-108437371D01*
X191006315Y-108532610D01*
X191006315Y-108770705D01*
X190958696Y-108865943D01*
X190911077Y-108913562D01*
X190815839Y-108961181D01*
X190577743Y-108961181D01*
X190482505Y-108913562D01*
X190434886Y-108865943D01*
X191663581Y-96712066D02*
X191187390Y-97045400D01*
X191663581Y-97283495D02*
X190663581Y-97283495D01*
X190663581Y-96902542D01*
X190711200Y-96807304D01*
X190758819Y-96759685D01*
X190854057Y-96712066D01*
X190996914Y-96712066D01*
X191092152Y-96759685D01*
X191139771Y-96807304D01*
X191187390Y-96902542D01*
X191187390Y-97283495D01*
X190663581Y-96378733D02*
X190663581Y-95759685D01*
X191044533Y-96093019D01*
X191044533Y-95950161D01*
X191092152Y-95854923D01*
X191139771Y-95807304D01*
X191235010Y-95759685D01*
X191473105Y-95759685D01*
X191568343Y-95807304D01*
X191615962Y-95854923D01*
X191663581Y-95950161D01*
X191663581Y-96235876D01*
X191615962Y-96331114D01*
X191568343Y-96378733D01*
X198354962Y-105856019D02*
X198259724Y-105808400D01*
X198164486Y-105713162D01*
X198021629Y-105570305D01*
X197926390Y-105522686D01*
X197831152Y-105522686D01*
X197878771Y-105760781D02*
X197783533Y-105713162D01*
X197688295Y-105617924D01*
X197640676Y-105427448D01*
X197640676Y-105094114D01*
X197688295Y-104903638D01*
X197783533Y-104808400D01*
X197878771Y-104760781D01*
X198069248Y-104760781D01*
X198164486Y-104808400D01*
X198259724Y-104903638D01*
X198307343Y-105094114D01*
X198307343Y-105427448D01*
X198259724Y-105617924D01*
X198164486Y-105713162D01*
X198069248Y-105760781D01*
X197878771Y-105760781D01*
X199259724Y-105760781D02*
X198688295Y-105760781D01*
X198974009Y-105760781D02*
X198974009Y-104760781D01*
X198878771Y-104903638D01*
X198783533Y-104998876D01*
X198688295Y-105046495D01*
X183983334Y-98909143D02*
X183935715Y-98956762D01*
X183792858Y-99004381D01*
X183697620Y-99004381D01*
X183554762Y-98956762D01*
X183459524Y-98861524D01*
X183411905Y-98766286D01*
X183364286Y-98575810D01*
X183364286Y-98432952D01*
X183411905Y-98242476D01*
X183459524Y-98147238D01*
X183554762Y-98052000D01*
X183697620Y-98004381D01*
X183792858Y-98004381D01*
X183935715Y-98052000D01*
X183983334Y-98099619D01*
X184316667Y-98004381D02*
X184935715Y-98004381D01*
X184602381Y-98385333D01*
X184745239Y-98385333D01*
X184840477Y-98432952D01*
X184888096Y-98480571D01*
X184935715Y-98575810D01*
X184935715Y-98813905D01*
X184888096Y-98909143D01*
X184840477Y-98956762D01*
X184745239Y-99004381D01*
X184459524Y-99004381D01*
X184364286Y-98956762D01*
X184316667Y-98909143D01*
X184253143Y-96178666D02*
X184300762Y-96226285D01*
X184348381Y-96369142D01*
X184348381Y-96464380D01*
X184300762Y-96607238D01*
X184205524Y-96702476D01*
X184110286Y-96750095D01*
X183919810Y-96797714D01*
X183776952Y-96797714D01*
X183586476Y-96750095D01*
X183491238Y-96702476D01*
X183396000Y-96607238D01*
X183348381Y-96464380D01*
X183348381Y-96369142D01*
X183396000Y-96226285D01*
X183443619Y-96178666D01*
X183681714Y-95321523D02*
X184348381Y-95321523D01*
X183300762Y-95559619D02*
X184015048Y-95797714D01*
X184015048Y-95178666D01*
M02*
