G04 #@! TF.FileFunction,Legend,Bot*
%FSLAX46Y46*%
G04 Gerber Fmt 4.6, Leading zero omitted, Abs format (unit mm)*
G04 Created by KiCad (PCBNEW 4.0.1-3.201512221402+6198~38~ubuntu14.04.1-stable) date Mon 01 Feb 2016 11:31:49 PM PST*
%MOMM*%
G01*
G04 APERTURE LIST*
%ADD10C,0.100000*%
%ADD11C,0.127000*%
G04 APERTURE END LIST*
D10*
D11*
X198715085Y-98480638D02*
X198569942Y-98529019D01*
X198328038Y-98529019D01*
X198231276Y-98480638D01*
X198182895Y-98432257D01*
X198134514Y-98335495D01*
X198134514Y-98238733D01*
X198182895Y-98141971D01*
X198231276Y-98093590D01*
X198328038Y-98045210D01*
X198521561Y-97996829D01*
X198618323Y-97948448D01*
X198666704Y-97900067D01*
X198715085Y-97803305D01*
X198715085Y-97706543D01*
X198666704Y-97609781D01*
X198618323Y-97561400D01*
X198521561Y-97513019D01*
X198279657Y-97513019D01*
X198134514Y-97561400D01*
X197118514Y-98432257D02*
X197166895Y-98480638D01*
X197312038Y-98529019D01*
X197408800Y-98529019D01*
X197553942Y-98480638D01*
X197650704Y-98383876D01*
X197699085Y-98287114D01*
X197747466Y-98093590D01*
X197747466Y-97948448D01*
X197699085Y-97754924D01*
X197650704Y-97658162D01*
X197553942Y-97561400D01*
X197408800Y-97513019D01*
X197312038Y-97513019D01*
X197166895Y-97561400D01*
X197118514Y-97609781D01*
X196683085Y-98529019D02*
X196683085Y-97513019D01*
X196102514Y-98529019D02*
X196537942Y-97948448D01*
X196102514Y-97513019D02*
X196683085Y-98093590D01*
X198718714Y-100995238D02*
X198573571Y-101043619D01*
X198331667Y-101043619D01*
X198234905Y-100995238D01*
X198186524Y-100946857D01*
X198138143Y-100850095D01*
X198138143Y-100753333D01*
X198186524Y-100656571D01*
X198234905Y-100608190D01*
X198331667Y-100559810D01*
X198525190Y-100511429D01*
X198621952Y-100463048D01*
X198670333Y-100414667D01*
X198718714Y-100317905D01*
X198718714Y-100221143D01*
X198670333Y-100124381D01*
X198621952Y-100076000D01*
X198525190Y-100027619D01*
X198283286Y-100027619D01*
X198138143Y-100076000D01*
X197702714Y-101043619D02*
X197702714Y-100027619D01*
X197460809Y-100027619D01*
X197315667Y-100076000D01*
X197218905Y-100172762D01*
X197170524Y-100269524D01*
X197122143Y-100463048D01*
X197122143Y-100608190D01*
X197170524Y-100801714D01*
X197218905Y-100898476D01*
X197315667Y-100995238D01*
X197460809Y-101043619D01*
X197702714Y-101043619D01*
X196735095Y-100753333D02*
X196251286Y-100753333D01*
X196831857Y-101043619D02*
X196493190Y-100027619D01*
X196154524Y-101043619D01*
X198132095Y-107696000D02*
X198228857Y-107647619D01*
X198374000Y-107647619D01*
X198519142Y-107696000D01*
X198615904Y-107792762D01*
X198664285Y-107889524D01*
X198712666Y-108083048D01*
X198712666Y-108228190D01*
X198664285Y-108421714D01*
X198615904Y-108518476D01*
X198519142Y-108615238D01*
X198374000Y-108663619D01*
X198277238Y-108663619D01*
X198132095Y-108615238D01*
X198083714Y-108566857D01*
X198083714Y-108228190D01*
X198277238Y-108228190D01*
X197648285Y-108663619D02*
X197648285Y-107647619D01*
X197067714Y-108663619D01*
X197067714Y-107647619D01*
X196583904Y-108663619D02*
X196583904Y-107647619D01*
X196341999Y-107647619D01*
X196196857Y-107696000D01*
X196100095Y-107792762D01*
X196051714Y-107889524D01*
X196003333Y-108083048D01*
X196003333Y-108228190D01*
X196051714Y-108421714D01*
X196100095Y-108518476D01*
X196196857Y-108615238D01*
X196341999Y-108663619D01*
X196583904Y-108663619D01*
X197781333Y-106280857D02*
X197829714Y-106329238D01*
X197974857Y-106377619D01*
X198071619Y-106377619D01*
X198216761Y-106329238D01*
X198313523Y-106232476D01*
X198361904Y-106135714D01*
X198410285Y-105942190D01*
X198410285Y-105797048D01*
X198361904Y-105603524D01*
X198313523Y-105506762D01*
X198216761Y-105410000D01*
X198071619Y-105361619D01*
X197974857Y-105361619D01*
X197829714Y-105410000D01*
X197781333Y-105458381D01*
X197345904Y-106377619D02*
X197345904Y-105361619D01*
X196765333Y-106377619D02*
X197200761Y-105797048D01*
X196765333Y-105361619D02*
X197345904Y-105942190D01*
X196329904Y-105845429D02*
X195991238Y-105845429D01*
X195846095Y-106377619D02*
X196329904Y-106377619D01*
X196329904Y-105361619D01*
X195846095Y-105361619D01*
X195410666Y-106377619D02*
X195410666Y-105361619D01*
X194830095Y-106377619D01*
X194830095Y-105361619D01*
X198410286Y-103051429D02*
X198748952Y-103051429D01*
X198748952Y-103583619D02*
X198748952Y-102567619D01*
X198265143Y-102567619D01*
X197926476Y-103535238D02*
X197781333Y-103583619D01*
X197539429Y-103583619D01*
X197442667Y-103535238D01*
X197394286Y-103486857D01*
X197345905Y-103390095D01*
X197345905Y-103293333D01*
X197394286Y-103196571D01*
X197442667Y-103148190D01*
X197539429Y-103099810D01*
X197732952Y-103051429D01*
X197829714Y-103003048D01*
X197878095Y-102954667D01*
X197926476Y-102857905D01*
X197926476Y-102761143D01*
X197878095Y-102664381D01*
X197829714Y-102616000D01*
X197732952Y-102567619D01*
X197491048Y-102567619D01*
X197345905Y-102616000D01*
X196716952Y-103099810D02*
X196716952Y-103583619D01*
X197055619Y-102567619D02*
X196716952Y-103099810D01*
X196378286Y-102567619D01*
X196039619Y-103583619D02*
X196039619Y-102567619D01*
X195459048Y-103583619D01*
X195459048Y-102567619D01*
X194394667Y-103486857D02*
X194443048Y-103535238D01*
X194588191Y-103583619D01*
X194684953Y-103583619D01*
X194830095Y-103535238D01*
X194926857Y-103438476D01*
X194975238Y-103341714D01*
X195023619Y-103148190D01*
X195023619Y-103003048D01*
X194975238Y-102809524D01*
X194926857Y-102712762D01*
X194830095Y-102616000D01*
X194684953Y-102567619D01*
X194588191Y-102567619D01*
X194443048Y-102616000D01*
X194394667Y-102664381D01*
X198664285Y-95830571D02*
X197890190Y-95830571D01*
X198277238Y-96217619D02*
X198277238Y-95443524D01*
X196922571Y-95201619D02*
X197406380Y-95201619D01*
X197454761Y-95685429D01*
X197406380Y-95637048D01*
X197309618Y-95588667D01*
X197067714Y-95588667D01*
X196970952Y-95637048D01*
X196922571Y-95685429D01*
X196874190Y-95782190D01*
X196874190Y-96024095D01*
X196922571Y-96120857D01*
X196970952Y-96169238D01*
X197067714Y-96217619D01*
X197309618Y-96217619D01*
X197406380Y-96169238D01*
X197454761Y-96120857D01*
X196583904Y-95201619D02*
X196245237Y-96217619D01*
X195906571Y-95201619D01*
X182958617Y-95239719D02*
X182716712Y-96255719D01*
X182523189Y-95530005D01*
X182329665Y-96255719D01*
X182087760Y-95239719D01*
X181700712Y-96255719D02*
X181700712Y-95578386D01*
X181700712Y-95239719D02*
X181749093Y-95288100D01*
X181700712Y-95336481D01*
X181652331Y-95288100D01*
X181700712Y-95239719D01*
X181700712Y-95336481D01*
X180781474Y-96207338D02*
X180878236Y-96255719D01*
X181071759Y-96255719D01*
X181168521Y-96207338D01*
X181216902Y-96158957D01*
X181265283Y-96062195D01*
X181265283Y-95771910D01*
X181216902Y-95675148D01*
X181168521Y-95626767D01*
X181071759Y-95578386D01*
X180878236Y-95578386D01*
X180781474Y-95626767D01*
X180346045Y-96255719D02*
X180346045Y-95239719D01*
X180249283Y-95868671D02*
X179958998Y-96255719D01*
X179958998Y-95578386D02*
X180346045Y-95965433D01*
X179136522Y-96207338D02*
X179233284Y-96255719D01*
X179426807Y-96255719D01*
X179523569Y-96207338D01*
X179571950Y-96110576D01*
X179571950Y-95723529D01*
X179523569Y-95626767D01*
X179426807Y-95578386D01*
X179233284Y-95578386D01*
X179136522Y-95626767D01*
X179088141Y-95723529D01*
X179088141Y-95820290D01*
X179571950Y-95917052D01*
X178652712Y-96255719D02*
X178652712Y-95578386D01*
X178652712Y-95771910D02*
X178604331Y-95675148D01*
X178555950Y-95626767D01*
X178459188Y-95578386D01*
X178362427Y-95578386D01*
X178023760Y-96255719D02*
X178023760Y-95239719D01*
X178023760Y-95626767D02*
X177926998Y-95578386D01*
X177733475Y-95578386D01*
X177636713Y-95626767D01*
X177588332Y-95675148D01*
X177539951Y-95771910D01*
X177539951Y-96062195D01*
X177588332Y-96158957D01*
X177636713Y-96207338D01*
X177733475Y-96255719D01*
X177926998Y-96255719D01*
X178023760Y-96207338D01*
X176959379Y-96255719D02*
X177056141Y-96207338D01*
X177104522Y-96158957D01*
X177152903Y-96062195D01*
X177152903Y-95771910D01*
X177104522Y-95675148D01*
X177056141Y-95626767D01*
X176959379Y-95578386D01*
X176814237Y-95578386D01*
X176717475Y-95626767D01*
X176669094Y-95675148D01*
X176620713Y-95771910D01*
X176620713Y-96062195D01*
X176669094Y-96158957D01*
X176717475Y-96207338D01*
X176814237Y-96255719D01*
X176959379Y-96255719D01*
X176282046Y-96255719D02*
X175749856Y-95578386D01*
X176282046Y-95578386D02*
X175749856Y-96255719D01*
X173814618Y-95723529D02*
X173475952Y-95723529D01*
X173330809Y-96255719D02*
X173814618Y-96255719D01*
X173814618Y-95239719D01*
X173330809Y-95239719D01*
X172750237Y-96255719D02*
X172846999Y-96207338D01*
X172895380Y-96110576D01*
X172895380Y-95239719D01*
X171976143Y-96207338D02*
X172072905Y-96255719D01*
X172266428Y-96255719D01*
X172363190Y-96207338D01*
X172411571Y-96110576D01*
X172411571Y-95723529D01*
X172363190Y-95626767D01*
X172266428Y-95578386D01*
X172072905Y-95578386D01*
X171976143Y-95626767D01*
X171927762Y-95723529D01*
X171927762Y-95820290D01*
X172411571Y-95917052D01*
X171056905Y-96207338D02*
X171153667Y-96255719D01*
X171347190Y-96255719D01*
X171443952Y-96207338D01*
X171492333Y-96158957D01*
X171540714Y-96062195D01*
X171540714Y-95771910D01*
X171492333Y-95675148D01*
X171443952Y-95626767D01*
X171347190Y-95578386D01*
X171153667Y-95578386D01*
X171056905Y-95626767D01*
X170766619Y-95578386D02*
X170379571Y-95578386D01*
X170621476Y-95239719D02*
X170621476Y-96110576D01*
X170573095Y-96207338D01*
X170476333Y-96255719D01*
X170379571Y-96255719D01*
X170040905Y-96255719D02*
X170040905Y-95578386D01*
X170040905Y-95771910D02*
X169992524Y-95675148D01*
X169944143Y-95626767D01*
X169847381Y-95578386D01*
X169750620Y-95578386D01*
X169266810Y-96255719D02*
X169363572Y-96207338D01*
X169411953Y-96158957D01*
X169460334Y-96062195D01*
X169460334Y-95771910D01*
X169411953Y-95675148D01*
X169363572Y-95626767D01*
X169266810Y-95578386D01*
X169121668Y-95578386D01*
X169024906Y-95626767D01*
X168976525Y-95675148D01*
X168928144Y-95771910D01*
X168928144Y-96062195D01*
X168976525Y-96158957D01*
X169024906Y-96207338D01*
X169121668Y-96255719D01*
X169266810Y-96255719D01*
X168492715Y-95578386D02*
X168492715Y-96255719D01*
X168492715Y-95675148D02*
X168444334Y-95626767D01*
X168347572Y-95578386D01*
X168202430Y-95578386D01*
X168105668Y-95626767D01*
X168057287Y-95723529D01*
X168057287Y-96255719D01*
X167573477Y-96255719D02*
X167573477Y-95578386D01*
X167573477Y-95239719D02*
X167621858Y-95288100D01*
X167573477Y-95336481D01*
X167525096Y-95288100D01*
X167573477Y-95239719D01*
X167573477Y-95336481D01*
X166654239Y-96207338D02*
X166751001Y-96255719D01*
X166944524Y-96255719D01*
X167041286Y-96207338D01*
X167089667Y-96158957D01*
X167138048Y-96062195D01*
X167138048Y-95771910D01*
X167089667Y-95675148D01*
X167041286Y-95626767D01*
X166944524Y-95578386D01*
X166751001Y-95578386D01*
X166654239Y-95626767D01*
X166267191Y-96207338D02*
X166170429Y-96255719D01*
X165976905Y-96255719D01*
X165880144Y-96207338D01*
X165831763Y-96110576D01*
X165831763Y-96062195D01*
X165880144Y-95965433D01*
X165976905Y-95917052D01*
X166122048Y-95917052D01*
X166218810Y-95868671D01*
X166267191Y-95771910D01*
X166267191Y-95723529D01*
X166218810Y-95626767D01*
X166122048Y-95578386D01*
X165976905Y-95578386D01*
X165880144Y-95626767D01*
X182595761Y-97756738D02*
X182450618Y-97805119D01*
X182208714Y-97805119D01*
X182111952Y-97756738D01*
X182063571Y-97708357D01*
X182015190Y-97611595D01*
X182015190Y-97514833D01*
X182063571Y-97418071D01*
X182111952Y-97369690D01*
X182208714Y-97321310D01*
X182402237Y-97272929D01*
X182498999Y-97224548D01*
X182547380Y-97176167D01*
X182595761Y-97079405D01*
X182595761Y-96982643D01*
X182547380Y-96885881D01*
X182498999Y-96837500D01*
X182402237Y-96789119D01*
X182160333Y-96789119D01*
X182015190Y-96837500D01*
X181579761Y-97805119D02*
X181579761Y-97127786D01*
X181579761Y-96789119D02*
X181628142Y-96837500D01*
X181579761Y-96885881D01*
X181531380Y-96837500D01*
X181579761Y-96789119D01*
X181579761Y-96885881D01*
X181095951Y-97805119D02*
X181095951Y-97127786D01*
X181095951Y-97224548D02*
X181047570Y-97176167D01*
X180950808Y-97127786D01*
X180805666Y-97127786D01*
X180708904Y-97176167D01*
X180660523Y-97272929D01*
X180660523Y-97805119D01*
X180660523Y-97272929D02*
X180612142Y-97176167D01*
X180515380Y-97127786D01*
X180370237Y-97127786D01*
X180273475Y-97176167D01*
X180225094Y-97272929D01*
X180225094Y-97805119D01*
X179741284Y-97127786D02*
X179741284Y-98143786D01*
X179741284Y-97176167D02*
X179644522Y-97127786D01*
X179450999Y-97127786D01*
X179354237Y-97176167D01*
X179305856Y-97224548D01*
X179257475Y-97321310D01*
X179257475Y-97611595D01*
X179305856Y-97708357D01*
X179354237Y-97756738D01*
X179450999Y-97805119D01*
X179644522Y-97805119D01*
X179741284Y-97756738D01*
X178676903Y-97805119D02*
X178773665Y-97756738D01*
X178822046Y-97659976D01*
X178822046Y-96789119D01*
X177902809Y-97756738D02*
X177999571Y-97805119D01*
X178193094Y-97805119D01*
X178289856Y-97756738D01*
X178338237Y-97659976D01*
X178338237Y-97272929D01*
X178289856Y-97176167D01*
X178193094Y-97127786D01*
X177999571Y-97127786D01*
X177902809Y-97176167D01*
X177854428Y-97272929D01*
X177854428Y-97369690D01*
X178338237Y-97466452D01*
X176644904Y-97805119D02*
X176644904Y-96789119D01*
X176257857Y-96789119D01*
X176161095Y-96837500D01*
X176112714Y-96885881D01*
X176064333Y-96982643D01*
X176064333Y-97127786D01*
X176112714Y-97224548D01*
X176161095Y-97272929D01*
X176257857Y-97321310D01*
X176644904Y-97321310D01*
X175193476Y-97127786D02*
X175193476Y-97805119D01*
X175628904Y-97127786D02*
X175628904Y-97659976D01*
X175580523Y-97756738D01*
X175483761Y-97805119D01*
X175338619Y-97805119D01*
X175241857Y-97756738D01*
X175193476Y-97708357D01*
X174564523Y-97805119D02*
X174661285Y-97756738D01*
X174709666Y-97659976D01*
X174709666Y-96789119D01*
X174225857Y-97756738D02*
X174129095Y-97805119D01*
X173935571Y-97805119D01*
X173838810Y-97756738D01*
X173790429Y-97659976D01*
X173790429Y-97611595D01*
X173838810Y-97514833D01*
X173935571Y-97466452D01*
X174080714Y-97466452D01*
X174177476Y-97418071D01*
X174225857Y-97321310D01*
X174225857Y-97272929D01*
X174177476Y-97176167D01*
X174080714Y-97127786D01*
X173935571Y-97127786D01*
X173838810Y-97176167D01*
X172967953Y-97756738D02*
X173064715Y-97805119D01*
X173258238Y-97805119D01*
X173355000Y-97756738D01*
X173403381Y-97659976D01*
X173403381Y-97272929D01*
X173355000Y-97176167D01*
X173258238Y-97127786D01*
X173064715Y-97127786D01*
X172967953Y-97176167D01*
X172919572Y-97272929D01*
X172919572Y-97369690D01*
X173403381Y-97466452D01*
X171951953Y-96837500D02*
X172048715Y-96789119D01*
X172193858Y-96789119D01*
X172339000Y-96837500D01*
X172435762Y-96934262D01*
X172484143Y-97031024D01*
X172532524Y-97224548D01*
X172532524Y-97369690D01*
X172484143Y-97563214D01*
X172435762Y-97659976D01*
X172339000Y-97756738D01*
X172193858Y-97805119D01*
X172097096Y-97805119D01*
X171951953Y-97756738D01*
X171903572Y-97708357D01*
X171903572Y-97369690D01*
X172097096Y-97369690D01*
X171081096Y-97756738D02*
X171177858Y-97805119D01*
X171371381Y-97805119D01*
X171468143Y-97756738D01*
X171516524Y-97659976D01*
X171516524Y-97272929D01*
X171468143Y-97176167D01*
X171371381Y-97127786D01*
X171177858Y-97127786D01*
X171081096Y-97176167D01*
X171032715Y-97272929D01*
X171032715Y-97369690D01*
X171516524Y-97466452D01*
X170597286Y-97127786D02*
X170597286Y-97805119D01*
X170597286Y-97224548D02*
X170548905Y-97176167D01*
X170452143Y-97127786D01*
X170307001Y-97127786D01*
X170210239Y-97176167D01*
X170161858Y-97272929D01*
X170161858Y-97805119D01*
X169000715Y-97127786D02*
X168758810Y-97805119D01*
X168516906Y-97127786D01*
X167597668Y-97805119D02*
X168178239Y-97805119D01*
X167887953Y-97805119D02*
X167887953Y-96789119D01*
X167984715Y-96934262D01*
X168081477Y-97031024D01*
X168178239Y-97079405D01*
X167162239Y-97708357D02*
X167113858Y-97756738D01*
X167162239Y-97805119D01*
X167210620Y-97756738D01*
X167162239Y-97708357D01*
X167162239Y-97805119D01*
X166484905Y-96789119D02*
X166388144Y-96789119D01*
X166291382Y-96837500D01*
X166243001Y-96885881D01*
X166194620Y-96982643D01*
X166146239Y-97176167D01*
X166146239Y-97418071D01*
X166194620Y-97611595D01*
X166243001Y-97708357D01*
X166291382Y-97756738D01*
X166388144Y-97805119D01*
X166484905Y-97805119D01*
X166581667Y-97756738D01*
X166630048Y-97708357D01*
X166678429Y-97611595D01*
X166726810Y-97418071D01*
X166726810Y-97176167D01*
X166678429Y-96982643D01*
X166630048Y-96885881D01*
X166581667Y-96837500D01*
X166484905Y-96789119D01*
M02*
